<svg width="19" height="19" viewBox="0 0 19 19" fill="none" xmlns="http://www.w3.org/2000/svg">
<path fill-rule="evenodd" clip-rule="evenodd" d="M18.6001 8.83281V17.5C18.6001 18.3284 17.9285 19 17.1001 19H13.3501C12.5217 19 11.8501 18.3284 11.8501 17.5V13.75C11.8501 13.3358 11.5143 13 11.1001 13H8.1001C7.68588 13 7.3501 13.3358 7.3501 13.75V17.5C7.3501 18.3284 6.67852 19 5.8501 19H2.1001C1.27167 19 0.600098 18.3284 0.600098 17.5V8.83281C0.600034 8.41309 0.775827 8.01254 1.08479 7.72844L8.58479 0.652188L8.5951 0.641875C9.16729 0.121501 10.0413 0.121501 10.6135 0.641875C10.6167 0.645543 10.6202 0.648989 10.6238 0.652188L18.1238 7.72844C18.4297 8.01402 18.6023 8.41437 18.6001 8.83281Z" fill="#121417"/>
</svg>
