<svg xmlns:dc="http://purl.org/dc/elements/1.1/" xmlns:cc="http://creativecommons.org/ns#" xmlns:rdf="http://www.w3.org/1999/02/22-rdf-syntax-ns#" xmlns:svg="http://www.w3.org/2000/svg" xmlns="http://www.w3.org/2000/svg" xmlns:sodipodi="http://sodipodi.sourceforge.net/DTD/sodipodi-0.dtd" xmlns:inkscape="http://www.inkscape.org/namespaces/inkscape" version="1.1" x="0px" y="0px" viewBox="0 0 100 125"><g transform="translate(0,-952.36218)"><path d="m 29.031299,960.36225 c -1.1047,0 -2,0.89543 -2,2 l 0,17 c 0,1.10456 0.8953,2 2,2 1.1046,0 2,-0.89544 2,-2 l 0,-17 c 0,-1.10457 -0.8954,-2 -2,-2 z m 42,0 c -1.1047,0 -2,0.89543 -2,2 l 0,17 c 0,1.10456 0.8953,2 2,2 1.1046,0 2,-0.89544 2,-2 l 0,-17 c 0,-1.10457 -0.8954,-2 -2,-2 z m -56,6 c -4.4458,0 -8.0313,3.58544 -8.0313,8.03125 l 0,17.96872 86.000002,0 0,-17.96872 c 0,-4.44581 -3.5855,-8.03125 -8.0312,-8.03125 l -5.9688,0 -3.968702,0 0,8.53125 c 1.2265,1.0986 2,2.6925 2,4.46875 0,3.31371 -2.6863,6 -6,6 -3.3138,0 -6,-2.68629 -6,-6 0,-1.77625 0.7734,-3.37015 2,-4.46875 l 0,-8.53125 -34.0313,0 0,8.5 c 1.2457,1.09942 2.0313,2.70792 2.0313,4.5 0,3.31371 -2.6863,6 -6,6 -3.3138,0 -6,-2.68629 -6,-6 0,-1.76041 0.7611,-3.33993 1.9687,-4.4375 l 0,-8.5625 z m -8.0313,29.99997 0,39.96858 c 0,4.4458 3.5854,8.0313 8.0313,8.0313 l 69.937502,0 c 4.4457,0 8.0312,-3.5855 8.0312,-8.0313 l 0,-39.96859 z" style="text-indent:0;text-transform:none;direction:ltr;block-progression:tb;baseline-shift:baseline;color:#000000;enable-background:accumulate;" fill="#000000" fill-opacity="1" stroke="none" marker="none" visibility="visible" display="inline" overflow="visible"/></g><text x="0" y="115" fill="#000000" font-size="5px" font-weight="bold" font-family="'Helvetica Neue', Helvetica, Arial-Unicode, Arial, Sans-serif">Created by iconsphere</text><text x="0" y="120" fill="#000000" font-size="5px" font-weight="bold" font-family="'Helvetica Neue', Helvetica, Arial-Unicode, Arial, Sans-serif">from the Noun Project</text></svg>