<svg width="24" height="16" viewBox="0 0 24 16" fill="none" xmlns="http://www.w3.org/2000/svg">
<path fill-rule="evenodd" clip-rule="evenodd" d="M10.7922 10.805C12.8561 9.43099 13.7769 6.86767 13.0592 4.49441C12.3415 2.12114 10.1545 0.497718 7.67505 0.497718C5.19563 0.497718 3.00862 2.12114 2.29088 4.49441C1.57315 6.86767 2.49398 9.43099 4.55786 10.805C2.73957 11.4752 1.18671 12.7153 0.130986 14.3403C-0.0200194 14.5647 -0.0384671 14.8531 0.0827087 15.095C0.203885 15.3368 0.445906 15.4947 0.71608 15.5081C0.986254 15.5215 1.24271 15.3884 1.38724 15.1597C2.77081 13.0317 5.13682 11.7479 7.67505 11.7479C10.2133 11.7479 12.5793 13.0317 13.9629 15.1597C14.1918 15.4999 14.6514 15.5932 14.9949 15.3692C15.3383 15.1452 15.4382 14.6869 15.2191 14.3403C14.1634 12.7153 12.6105 11.4752 10.7922 10.805ZM3.55005 6.125C3.55005 3.84683 5.39687 2 7.67505 2C9.95322 2 11.8 3.84683 11.8 6.125C11.8 8.40317 9.95322 10.25 7.67505 10.25C5.39795 10.2474 3.55263 8.4021 3.55005 6.125ZM23.2507 15.3781C22.9038 15.6043 22.4392 15.5066 22.2129 15.1597C20.8308 13.0303 18.4636 11.7466 15.925 11.75C15.5108 11.75 15.175 11.4142 15.175 11C15.175 10.5858 15.5108 10.25 15.925 10.25C17.5864 10.2484 19.0846 9.25041 19.7262 7.71798C20.3677 6.18554 20.0274 4.4178 18.8627 3.23312C17.698 2.04844 15.9363 1.67805 14.3932 2.29344C14.1427 2.40171 13.8532 2.36541 13.6372 2.19864C13.4212 2.03188 13.3129 1.76096 13.3542 1.49125C13.3956 1.22154 13.5803 0.995581 13.8363 0.90125C16.5109 -0.165433 19.5593 0.960007 20.899 3.50883C22.2388 6.05765 21.4374 9.2067 19.0422 10.805C20.8605 11.4752 22.4134 12.7153 23.4691 14.3403C23.6953 14.6872 23.5975 15.1518 23.2507 15.3781Z" fill="#637587"/>
</svg>
